<svg version="1.1" xmlns="http://www.w3.org/2000/svg" xmlns:xlink="http://www.w3.org/1999/xlink" width="800px" height="800px" viewBox="0,0,256,256"><g fill="#ffffff" fill-rule="nonzero" stroke="none" stroke-width="1" stroke-linecap="butt" stroke-linejoin="miter" stroke-miterlimit="10" stroke-dasharray="" stroke-dashoffset="0" font-family="none" font-weight="none" font-size="none" text-anchor="none" style="mix-blend-mode: normal"><g transform="translate(0,5.12) scale(10.24,10.24)"><path d="M7.5,11.25c-0.41421,0 -0.75,0.3358 -0.75,0.75c0,0.4142 0.33579,0.75 0.75,0.75zM12.5,12.75c0.4142,0 0.75,-0.3358 0.75,-0.75c0,-0.4142 -0.3358,-0.75 -0.75,-0.75zM12.5,11.25c-0.4142,0 -0.75,0.3358 -0.75,0.75c0,0.4142 0.3358,0.75 0.75,0.75zM17.5,12.75c0.4142,0 0.75,-0.3358 0.75,-0.75c0,-0.4142 -0.3358,-0.75 -0.75,-0.75zM13.25,12c0,-0.4142 -0.3358,-0.75 -0.75,-0.75c-0.4142,0 -0.75,0.3358 -0.75,0.75zM11.75,17c0,0.4142 0.3358,0.75 0.75,0.75c0.4142,0 0.75,-0.3358 0.75,-0.75zM11.75,12c0,0.4142 0.3358,0.75 0.75,0.75c0.4142,0 0.75,-0.3358 0.75,-0.75zM13.25,7c0,-0.41421 -0.3358,-0.75 -0.75,-0.75c-0.4142,0 -0.75,0.33579 -0.75,0.75zM7.5,12.75h5v-1.5h-5zM12.5,12.75h5v-1.5h-5zM12.5,12h-0.75v0v0v0v0v0v0v0v0v0v0c0,0.0001 0,0.0001 0,0.0001v0v0v0c0,0 0,0 0,0.0001v0v0c0,0 0,0 0,0.0001v0v0c0,0.0001 0,0.0001 0,0.0001c0,0 0,0 0,0.0001v0v0.0001c0,0 0,0 0,0.0001v0c0,0.0001 0,0.0001 0,0.0001v0.0001v0.0001v0.0001v0.0001c0,0.0001 0,0.0001 0,0.0001c0,0.0001 0,0.0001 0,0.0002v0.0001v0.0001c0,0.0001 0,0.0001 0,0.0002v0.0001c0,0.0001 0,0.0002 0,0.0002c0,0.0001 0,0.0001 0,0.0002c0,0 0,0.0001 0,0.0002c0,0 0,0.0001 0,0.0002c0,0 0,0.0001 0,0.0002c0,0 0,0.0001 0,0.0002c0,0 0,0.0001 0,0.0002c0,0.0001 0,0.0001 0,0.0002c0,0.0001 0,0.0002 0,0.0003c0,0.0001 0,0.0001 0,0.0002c0,0.0001 0,0.0002 0,0.0003c0,0.0001 0,0.0002 0,0.0003c0,0 0,0.0001 0,0.0002c0,0.0001 0,0.0002 0,0.0003c0,0.0001 0,0.0002 0,0.0003c0,0.0002 0,0.0003 0,0.0004c0,0.0001 0,0.0002 0,0.0003c0,0.0001 0,0.0002 0,0.0003c0,0.0002 0,0.0003 0,0.0004c0,0.0001 0,0.0002 0,0.0004c0,0.0001 0,0.0002 0,0.0004c0,0.0001 0,0.0002 0,0.0003c0,0.0002 0,0.0003 0,0.0005c0,0.0001 0,0.0002 0,0.0004c0,0.0001 0,0.0003 0,0.0004c0,0.0002 0,0.0003 0,0.0005c0,0.0001 0,0.0003 0,0.0004c0,0.0002 0,0.0003 0,0.0005c0,0.0002 0,0.0003 0,0.0005c0,0.0002 0,0.0003 0,0.0005c0,0.0002 0,0.0004 0,0.0005c0,0.0002 0,0.0004 0,0.0006c0,0.0002 0,0.0003 0,0.0005c0,0.0002 0,0.0004 0,0.0006c0,0.0002 0,0.0004 0,0.0006c0,0.0002 0,0.0004 0,0.0006c0,0.0002 0,0.0004 0,0.0006c0,0.0002 0,0.0004 0,0.0007c0,0.0002 0,0.0004 0,0.0006c0,0.0002 0,0.0005 0,0.0007c0,0.0002 0,0.0004 0,0.0007c0,0.0002 0,0.0004 0,0.0007c0,0.0002 0,0.0005 0,0.0007c0,0.0002 0,0.0005 0,0.0007c0,0.0003 0,0.0005 0,0.0008c0,0.0003 0,0.0005 0,0.0008c0,0.0002 0,0.0005 0,0.0008c0,0.0002 0,0.0005 0,0.0008c0,0.0003 0,0.0005 0,0.0008c0,0.0003 0,0.0006 0,0.0009c0,0.0003 0,0.0006 0,0.0009c0,0.0003 0,0.0006 0,0.0009c0,0.0003 0,0.0006 0,0.0009c0,0.0003 0,0.0006 0,0.0009c0,0.0003 0,0.0006 0,0.001c0,0.0003 0,0.0006 0,0.0009c0,0.0004 0,0.0007 0,0.001c0,0.0004 0,0.0007 0,0.0011c0,0.0003 0,0.0006 0,0.001c0,0.0004 0,0.0007 0,0.0011c0,0.0003 0,0.0007 0,0.001c0,0.0004 0,0.0008 0,0.0012c0,0.0003 0,0.0007 0,0.0011c0,0.0004 0,0.0007 0,0.0011c0,0.0004 0,0.0008 0,0.0012c0,0.0004 0,0.0008 0,0.0012c0,0.0004 0,0.0008 0,0.0012c0,0.0004 0,0.0009 0,0.0013c0,0.0004 0,0.0008 0,0.0012c0,0.0005 0,0.0009 0,0.0013c0,0.0005 0,0.0009 0,0.0013c0,0.0005 0,0.0009 0,0.0014c0,0.0004 0,0.0009 0,0.0013c0,0.0005 0,0.001 0,0.0014c0,0.0005 0,0.001 0,0.0015c0,0.0004 0,0.0009 0,0.0014c0,0.0005 0,0.001 0,0.0015c0,0.0004 0,0.0009 0,0.0014c0,0.0005 0,0.0011 0,0.0016c0,0.0005 0,0.001 0,0.0015c0,0.0005 0,0.001 0,0.0016c0,0.0005 0,0.001 0,0.0016c0,0.0005 0,0.0011 0,0.0016c0,0.0005 0,0.0011 0,0.0016c0,0.0006 0,0.0012 0,0.0017c0,0.0006 0,0.0012 0,0.0017c0,0.0006 0,0.0012 0,0.0018c0,0.0005 0,0.0011 0,0.0017c0,0.0006 0,0.0012 0,0.0018c0,0.0006 0,0.0012 0,0.0018c0,0.0006 0,0.0013 0,0.0019c0,0.0006 0,0.0012 0,0.0018c0,0.0007 0,0.0013 0,0.0019c0,0.0007 0,0.0013 0,0.002c0,0.0006 0,0.0013 0,0.0019c0,0.0007 0,0.0014 0,0.002c0,0.0007 0,0.0014 0,0.0021c0,0.0006 0,0.0013 0,0.002c0,0.0007 0,0.0014 0,0.0021c0,0.0007 0,0.0014 0,0.0021c0,0.0007 0,0.0014 0,0.0021c0,0.0008 0,0.0015 0,0.0022c0,0.0008 0,0.0015 0,0.0022c0,0.0008 0,0.0015 0,0.0023c0,0.0007 0,0.0015 0,0.0022c0,0.0008 0,0.0016 0,0.0023c0,0.0008 0,0.0016 0,0.0024c0,0.0008 0,0.0015 0,0.0023c0,0.0008 0,0.0016 0,0.0024c0,0.0008 0,0.0017 0,0.0025c0,0.0008 0,0.0016 0,0.0024c0,0.0009 0,0.0017 0,0.0025c0,0.0009 0,0.0017 0,0.0026c0,0.0008 0,0.0017 0,0.0025c0,0.0009 0,0.0018 0,0.0026c0,0.0009 0,0.0018 0,0.0027c0,0.0008 0,0.0017 0,0.0026c0,0.0009 0,0.0018 0,0.0027c0,0.0009 0,0.0018 0,0.0028c0,0.0009 0,0.0018 0,0.0027c0,0.001 0,0.0019 0,0.0028c0,0.001 0,0.0019 0,0.0029c0,0.0009 0,0.0019 0,0.0029c0,0.0009 0,0.0019 0,0.0029c0,0.001 0,0.0019 0,0.0029c0,0.001 0,0.002 0,0.003c0,0.001 0,0.002 0,0.003c0,0.0011 0,0.0021 0,0.0031c0,0.001 0,0.0021 0,0.0031c0,0.001 0,0.0021 0,0.0031c0,0.0011 0,0.0021 0,0.0032c0,0.0011 0,0.0021 0,0.0032c0,0.0011 0,0.0022 0,0.0033c0,0.0011 0,0.0022 0,0.0033c0,0.0011 0,0.0022 0,0.0033c0,0.0011 0,0.0022 0,0.0033c0,0.0012 0,0.0023 0,0.0035c0,0.0011 0,0.0022 0,0.0034c0,0.0011 0,0.0023 0,0.0035c0,0.0011 0,0.0023 0,0.0035c0,0.0012 0,0.0024 0,0.0036c0,0.0012 0,0.0024 0,0.0036c0,0.0012 0,0.0024 0,0.0036c0,0.0012 0,0.0024 0,0.0037c0,0.0012 0,0.0025 0,0.0037c0,0.0013 0,0.0025 0,0.0038c0,0.0012 0,0.0025 0,0.0038c0,0.0012 0,0.0025 0,0.0038c0,0.0013 0,0.0026 0,0.0039c0,0.0013 0,0.0026 0,0.0039c0,0.0013 0,0.0027 0,0.004c0,0.0013 0,0.0027 0,0.004c0,0.0014 0,0.0027 0,0.0041c0,0.0013 0,0.0027 0,0.0041c0,0.0013 0,0.0027 0,0.0041c0,0.0014 0,0.0028 0,0.0042c0,0.0014 0,0.0028 0,0.0042c0,0.0014 0,0.0029 0,0.0043c0,0.0014 0,0.0029 0,0.0043c0,0.0015 0,0.0029 0,0.0044c0,0.0014 0,0.0029 0,0.0044c0,0.0015 0,0.0029 0,0.0044c0,0.0015 0,0.003 0,0.0045c0,0.0015 0,0.003 0,0.0046c0,0.0015 0,0.003 0,0.0045c0,0.0016 0,0.0031 0,0.0047c0,0.0015 0,0.0031 0,0.0046c0,0.0016 0,0.0032 0,0.0048c0,0.0015 0,0.0031 0,0.0047c0,0.0016 0,0.0032 0,0.0048c0,0.0016 0,0.0033 0,0.0049c0,0.0016 0,0.0033 0,0.0049c0,0.0016 0,0.0033 0,0.005c0,0.0016 0,0.0033 0,0.005c0,0.0016 0,0.0033 0,0.005c0,0.0017 0,0.0034 0,0.0051c0,0.0017 0,0.0034 0,0.0051c0,0.0018 0,0.0035 0,0.0052c0,0.0018 0,0.0035 0,0.0053c0,0.0017 0,0.0035 0,0.0052c0,0.0018 0,0.0036 0,0.0054c0,0.0018 0,0.0036 0,0.0054c0,0.0018 0,0.0036 0,0.0054c0,0.0018 0,0.0036 0,0.0055c0,0.0018 0,0.0037 0,0.0055c0,0.0019 0,0.0037 0,0.0056c0,0.0019 0,0.0037 0,0.0056c0,0.0019 0,0.0038 0,0.0057c0,0.0019 0,0.0038 0,0.0058c0,0.0019 0,0.0038 0,0.0057c0,0.002 0,0.0039 0,0.0059c0,0.0019 0,0.0039 0,0.0059c0,0.0019 0,0.0039 0,0.0059c0,0.002 0,0.004 0,0.006c0,0.002 0,0.004 0,0.006c0,0.002 0,0.0041 0,0.0061c0,0.0021 0,0.0041 0,0.0062c0,0.002 0,0.0041 0,0.0062c0,0.002 0,0.0041 0,0.0062c0,0.0021 0,0.0042 0,0.0063c0,0.0021 0,0.0042 0,0.0064c0,0.0021 0,0.0042 0,0.0064c0,0.0021 0,0.0043 0,0.0064c0,0.0022 0,0.0044 0,0.0066c0,0.0021 0,0.0043 0,0.0065c0,0.0022 0,0.0044 0,0.0067c0,0.0022 0,0.0044 0,0.0066c0,0.0023 0,0.0045 0,0.0068c0,0.0022 0,0.0045 0,0.0068c0,0.0022 0,0.0045 0,0.0068c0,0.0023 0,0.0046 0,0.0069c0,0.0023 0,0.0046 0,0.007c0,0.0023 0,0.0046 0,0.007c0,0.0023 0,0.0047 0,0.0071c0,0.0023 0,0.0047 0,0.0071c0,0.0024 0,0.0048 0,0.0072c0,0.0024 0,0.0048 0,0.0072c0,0.0024 0,0.0049 0,0.0073c0,0.0024 0,0.0049 0,0.0074c0,0.0024 0,0.0049 0,0.0074c0,0.0024 0,0.0049 0,0.0074c0,0.0025 0,0.005 0,0.0076c0,0.0025 0,0.005 0,0.0075c0,0.0026 0,0.0051 0,0.0077c0,0.0025 0,0.0051 0,0.0077c0,0.0026 0,0.0051 0,0.0077c0,0.0026 0,0.0052 0,0.0079c0,0.0026 0,0.0052 0,0.0078c0,0.0027 0,0.0053 0,0.008c0,0.0026 0,0.0053 0,0.008c0,0.0027 0,0.0053 0,0.008c0,0.0027 0,0.0054 0,0.0081c0,0.0028 0,0.0055 0,0.0082c0,0.0028 0,0.0055 0,0.0083c0,0.0027 0,0.0055 0,0.0083c0,0.0027 0,0.0055 0,0.0083c0,0.0028 0,0.0056 0,0.0084c0,0.0029 0,0.0057 0,0.0085c0,0.0029 0,0.0057 0,0.0086c0,0.0028 0,0.0057 0,0.0086c0,0.0029 0,0.0057 0,0.0086c0,0.0029 0,0.0059 0,0.0088c0,0.0029 0,0.0058 0,0.0088c0,0.0029 0,0.0059 0,0.0088c0,0.003 0,0.006 0,0.0089c0,0.003 0,0.006 0,0.009c0,0.003 0,0.006 0,0.0091c0,0.003 0,0.006 0,0.0091c0,0.003 0,0.0061 0,0.0092c0,0.003 0,0.0061 0,0.0092c0,0.0031 0,0.0062 0,0.0093c0,0.0031 0,0.0062 0,0.0094c0,0.0031 0,0.0062 0,0.0094c0,0.0031 0,0.0063 0,0.0095c0,0.0032 0,0.0064 0,0.0096c0,0.0031 0,0.0064 0,0.0096c0,0.0032 0,0.0064 0,0.0097c0,0.0032 0,0.0065 0,0.0097c0,0.0033 0,0.0066 0,0.0099c0,0.0032 0,0.0065 0,0.0098c0,0.0034 0,0.0067 0,0.01c0,0.0033 0,0.0067 0,0.01c0,0.0034 0,0.0067 0,0.0101c0,0.0034 0,0.0068 0,0.0102c0,0.0034 0,0.0068 0,0.0102c0,0.0034 0,0.0069 0,0.0103c0,0.0034 0,0.0069 0,0.0104c0,0.0034 0,0.0069 0,0.0104c0,0.0035 0,0.007 0,0.0105c0,0.0035 0,0.007 0,0.0106c0,0.0035 0,0.007 0,0.0106c0,0.0036 0,0.0071 0,0.0107c0,0.0036 0,0.0072 0,0.0108c0,0.0036 0,0.0072 0,0.0108c0,0.0036 0,0.0073 0,0.0109c0,0.0037 0,0.0073 0,0.011c0,0.0037 0,0.0074 0,0.0111c0,0.0037 0,0.0074 0,0.0111c0,0.0037 0,0.0074 0,0.0112c0,0.0037 0,0.0075 0,0.0113c0,0.0037 0,0.0075 0,0.0113c0,0.0038 0,0.0076 0,0.0114c0,0.0038 0,0.0076 0,0.0115c0,0.0038 0,0.0077 0,0.0115c0,0.0039 0,0.0078 0,0.0117c0,0.0038 0,0.0077 0,0.0117c0,0.0039 0,0.0078 0,0.0117c0,0.004 0,0.0079 0,0.0119c0,0.0039 0,0.0079 0,0.0119c0,0.004 0,0.008 0,0.012c0,0.004 0,0.008 0,0.012c0,0.0041 0,0.0081 0,0.0122c0,0.004 0,0.0081 0,0.0122c0,0.004 0,0.0081 0,0.0122c0,0.0042 0,0.0083 0,0.0124c0,0.0041 0,0.0083 0,0.0124c0,0.0042 0,0.0084 0,0.0125c0,0.0042 0,0.0084 0,0.0126c0,0.0042 0,0.0084 0,0.0127c0,0.0042 0,0.0084 0,0.0127c0,0.0043 0,0.0085 0,0.0128c0,0.0043 0,0.0086 0,0.0129c0,0.0043 0,0.0086 0,0.0129c0,0.0044 0,0.0087 0,0.0131c0,0.0043 0,0.0087 0,0.0131c0,0.0044 0,0.0088 0,0.0132c0,0.0044 0,0.0088 0,0.0132c0,0.0045 0,0.0089 0,0.0134c0,0.0044 0,0.0089 0,0.0134c0,0.0045 0,0.009 0,0.0135c0,0.0045 0,0.009 0,0.0136c0,0.0045 0,0.0091 0,0.0136c0,0.0046 0,0.0092 0,0.0137c0,0.0046 0,0.0092 0,0.0139c0,0.0046 0,0.0092 0,0.0138c0,0.0047 0,0.0093 0,0.014c0,0.0047 0,0.0094 0,0.0141c0,0.0046 0,0.0094 0,0.0141c0,0.0047 0,0.0094 0,0.0142c0,0.0047 0,0.0095 0,0.0143c0,0.0047 0,0.0095 0,0.0143c0,0.0048 0,0.0096 0,0.0145c0,0.0048 0,0.0096 0,0.0145c0,0.0049 0,0.0097 0,0.0146c0,0.0049 0,0.0098 0,0.0147c0,0.0049 0,0.0098 0,0.0148c0,0.0049 0,0.0098 0,0.0148c0,0.005 0,0.0099 0,0.0149c0,0.005 0,0.01 0,0.015c0,0.0051 0,0.0101 0,0.0151c0,0.0051 0,0.0101 0,0.0152c0,0.0051 0,0.0102 0,0.0153c0,0.0051 0,0.0102 0,0.0153c0,0.0051 0,0.0103 0,0.0154c0,0.0052 0,0.0104 0,0.0155c0,0.0052 0,0.0104 0,0.0156c0,0.0052 0,0.0105 0,0.0157c0,0.0052 0,0.0105 0,0.0158c0,0.0052 0,0.0105 0,0.0158c0,0.0053 0,0.0106 0,0.0159c0,0.0054 0,0.0107 0,0.016c0,0.0054 0,0.0108 0,0.0161c0,0.0054 0,0.0108 0,0.0162c0,0.0054 0,0.0109 0,0.0163c0,0.0054 0,0.0109 0,0.0163c0,0.0055 0,0.011 0,0.0165c0,0.0055 0,0.011 0,0.0165c0,0.0055 0,0.0111 0,0.0166c0,0.0056 0,0.0111 0,0.0167c0,0.0056 0,0.0112 0,0.0168c0,0.0056 0,0.0112 0,0.0169c0,0.0056 0,0.0112 0,0.0169c0,0.0057 0,0.0114 0,0.017c0,0.0057 0,0.0115 0,0.0172c0,0.0057 0,0.0114 0,0.0172c0,0.0057 0,0.0115 0,0.0173c0,0.0058 0,0.0116 0,0.0174c0,0.0058 0,0.0116 0,0.0175c0,0.0058 0,0.0117 0,0.0175c0,0.0059 0,0.0118 0,0.0177c0,0.0059 0,0.0118 0,0.0177c0,0.006 0,0.0119 0,0.0179c0,0.0059 0,0.0119 0,0.0179c0,0.006 0,0.012 0,0.018c0,0.006 0,0.0121 0,0.0181c0,0.0061 0,0.0121 0,0.0182c0,0.0061 0,0.0122 0,0.0183c0,0.0061 0,0.0123 0,0.0184c0,0.0061 0,0.0123 0,0.0185c0,0.0061 0,0.0123 0,0.0185c0,0.0062 0,0.0124 0,0.0187c0,0.0062 0,0.0124 0,0.0187c0,0.0063 0,0.0125 0,0.0188c0,0.0063 0,0.0126 0,0.019c0,0.0063 0,0.0126 0,0.019c0,0.0063 0,0.0127 0,0.0191c0,0.0064 0,0.0128 0,0.0192c0,0.0064 0,0.0128 0,0.0193c0,0.0064 0,0.0129 0,0.0194c0,0.0064 0,0.0129 0,0.0195c0,0.0065 0,0.013 0,0.0195c0,0.0066 0,0.0131 0,0.0197c0,0.0066 0,0.0132 0,0.0198c0,0.0066 0,0.0132 0,0.0198c0,0.0066 0,0.0133 0,0.02c0,0.0066 0,0.0133 0,0.02c0,0.0067 0,0.0134 0,0.0201c0,0.0068 0,0.0135 0,0.0203c0,0.0067 0,0.0135 0,0.0203c0,0.0068 0,0.0136 0,0.0204c0,0.0069 0,0.0137 0,0.0206c0,0.0068 0,0.0137 0,0.0206c0,0.0069 0,0.0138 0,0.0207c0,0.0069 0,0.0138 0,0.0208c0,0.0069 0,0.0139 0,0.0209c0,0.007 0,0.014 0,0.021c0,0.007 0,0.014 0,0.0211c0,0.007 0,0.0141 0,0.0212c0,0.0071 0,0.0142 0,0.0213c0,0.0071 0,0.0142 0,0.0214c0,0.0071 0,0.0143 0,0.0215c0,0.0071 0,0.0143 0,0.0216c0,0.0072 0,0.0144 0,0.0216c0,0.0073 0,0.0145 0,0.0218c0,0.0073 0,0.0146 0,0.0219c0,0.0073 0,0.0146 0,0.022c0,0.0073 0,0.0147 0,0.0221c0,0.0073 0,0.0147 0,0.0221c0,0.0075 0,0.0149 0,0.0223c0,0.0075 0,0.0149 0,0.0224c0,0.0075 0,0.015 0,0.0225c0,0.0075 0,0.015 0,0.0226c0,0.0075 0,0.0151 0,0.0227c0,0.0075 0,0.0151 0,0.0227c0,0.0076 0,0.0153 0,0.0229c0,0.0077 0,0.0153 0,0.023c0,0.0077 0,0.0154 0,0.0231c0,0.0077 0,0.0154 0,0.0232c0,0.0077 0,0.0155 0,0.0233c0,0.0077 0,0.0155 0,0.0234c0,0.0078 0,0.0156 0,0.0235c0,0.0078 0,0.0157 0,0.0235c0,0.0079 0,0.0158 0,0.0237c0,0.008 0,0.0159 0,0.0239c0,0.0079 0,0.0159 0,0.0239c0,0.0079 0,0.0159 0,0.024c0,0.008 0,0.016 0,0.0241c0,0.008 0,0.0161 0,0.0242c0,0.0081 0,0.0162 0,0.0243c0,0.0081 0,0.0163 0,0.0244c0,0.0082 0,0.0164 0,0.0246c0,0.0082 0,0.0164 0,0.0246c0,0.0082 0,0.0165 0,0.0247c0,0.0083 0,0.0166 0,0.0249c0,0.0083 0,0.0166 0,0.0249c0,0.0084 0,0.0167 0,0.0251c0,0.0084 0,0.0168 0,0.0252c0,0.0084 0,0.0168 0,0.0252c0,0.0085 0,0.0169 0,0.0254c0,0.0085 0,0.017 0,0.0255c0,0.0085 0,0.017 0,0.0256c0,0.0085 0,0.0171 0,0.0257c0,0.0086 0,0.0172 0,0.0258c0,0.0086 0,0.0172 0,0.0259c0,0.0086 0,0.0173 0,0.026c0,0.0087 0,0.0174 0,0.0261c0,0.0088 0,0.0175 0,0.0263c0,0.0087 0,0.0175 0,0.0263c0,0.0088 0,0.0176 0,0.0265c0,0.0088 0,0.0176 0,0.0265c0,0.0089 0,0.0178 0,0.0267c0,0.0089 0,0.0178 0,0.0268c0,0.0089 0,0.0179 0,0.0269c0,0.0089 0,0.0179 0,0.027c0,0.009 0,0.018 0,0.0271c0,0.009 0,0.0181 0,0.0272c0,0.0091 0,0.0182 0,0.0273c0,0.0091 0,0.0183 0,0.0274c0,0.0092 0,0.0184 0,0.0276c0,0.0092 0,0.0184 0,0.0277c0,0.0092 0,0.0185 0,0.0277c0,0.0093 0,0.0186 0,0.0279c0,0.0093 0,0.0187 0,0.028c0,0.0094 0,0.0187 0,0.0281c0,0.0094 0,0.0188 0,0.0282c0,0.0095 0,0.0189 0,0.0284c0,0.0094 0,0.0189 0,0.0284c0,0.0095 0,0.019 0,0.0286c0,0.0095 0,0.0191 0,0.0286c0,0.0096 0,0.0192 0,0.0288c0,0.0096 0,0.0193 0,0.0289c0,0.0097 0,0.0193 0,0.029c0,0.0097 0,0.0194 0,0.0292c0,0.0097 0,0.0194 0,0.0292h1.5c0,-0.0098 0,-0.0195 0,-0.0292c0,-0.0098 0,-0.0195 0,-0.0292c0,-0.0097 0,-0.0193 0,-0.029c0,-0.0096 0,-0.0193 0,-0.0289c0,-0.0096 0,-0.0192 0,-0.0288c0,-0.0095 0,-0.0191 0,-0.0286c0,-0.0096 0,-0.0191 0,-0.0286c0,-0.0095 0,-0.019 0,-0.0284c0,-0.0095 0,-0.0189 0,-0.0284c0,-0.0094 0,-0.0188 0,-0.0282c0,-0.0094 0,-0.0187 0,-0.0281c0,-0.0093 0,-0.0187 0,-0.028c0,-0.0093 0,-0.0186 0,-0.0279c0,-0.0092 0,-0.0185 0,-0.0277c0,-0.0093 0,-0.0185 0,-0.0277c0,-0.0092 0,-0.0184 0,-0.0276c0,-0.0091 0,-0.0183 0,-0.0274c0,-0.0091 0,-0.0182 0,-0.0273c0,-0.0091 0,-0.0182 0,-0.0272c0,-0.0091 0,-0.0181 0,-0.0271c0,-0.0091 0,-0.0181 0,-0.027c0,-0.009 0,-0.018 0,-0.0269c0,-0.009 0,-0.0179 0,-0.0268c0,-0.0089 0,-0.0178 0,-0.0267c0,-0.0089 0,-0.0177 0,-0.0265c0,-0.0089 0,-0.0177 0,-0.0265c0,-0.0088 0,-0.0176 0,-0.0263c0,-0.0088 0,-0.0175 0,-0.0263c0,-0.0087 0,-0.0174 0,-0.0261c0,-0.0087 0,-0.0174 0,-0.026c0,-0.0087 0,-0.0173 0,-0.0259c0,-0.0086 0,-0.0172 0,-0.0258c0,-0.0086 0,-0.0172 0,-0.0257c0,-0.0086 0,-0.0171 0,-0.0256c0,-0.0085 0,-0.017 0,-0.0255c0,-0.0085 0,-0.0169 0,-0.0254c0,-0.0084 0,-0.0168 0,-0.0252c0,-0.0084 0,-0.0168 0,-0.0252c0,-0.0084 0,-0.0167 0,-0.0251c0,-0.0083 0,-0.0166 0,-0.0249c0,-0.0083 0,-0.0166 0,-0.0249c0,-0.0082 0,-0.0165 0,-0.0247c0,-0.0082 0,-0.0164 0,-0.0246c0,-0.0082 0,-0.0164 0,-0.0246c0,-0.0081 0,-0.0163 0,-0.0244c0,-0.0081 0,-0.0162 0,-0.0243c0,-0.0081 0,-0.0162 0,-0.0242c0,-0.0081 0,-0.0161 0,-0.0241c0,-0.0081 0,-0.0161 0,-0.024c0,-0.008 0,-0.016 0,-0.0239c0,-0.008 0,-0.0159 0,-0.0239c0,-0.0079 0,-0.0158 0,-0.0237c0,-0.0078 0,-0.0157 0,-0.0235c0,-0.0079 0,-0.0157 0,-0.0235c0,-0.0079 0,-0.0157 0,-0.0234c0,-0.0078 0,-0.0156 0,-0.0233c0,-0.0078 0,-0.0155 0,-0.0232c0,-0.0077 0,-0.0154 0,-0.0231c0,-0.0077 0,-0.0153 0,-0.023c0,-0.0076 0,-0.0153 0,-0.0229c0,-0.0076 0,-0.0152 0,-0.0227c0,-0.0076 0,-0.0152 0,-0.0227c0,-0.0076 0,-0.0151 0,-0.0226c0,-0.0075 0,-0.015 0,-0.0225c0,-0.0075 0,-0.0149 0,-0.0224c0,-0.0074 0,-0.0148 0,-0.0223c0,-0.0074 0,-0.0148 0,-0.0221c0,-0.0074 0,-0.0148 0,-0.0221c0,-0.0074 0,-0.0147 0,-0.022c0,-0.0073 0,-0.0146 0,-0.0219c0,-0.0073 0,-0.0145 0,-0.0218c0,-0.0072 0,-0.0144 0,-0.0216c0,-0.0073 0,-0.0145 0,-0.0216c0,-0.0072 0,-0.0144 0,-0.0215c0,-0.0072 0,-0.0143 0,-0.0214c0,-0.0071 0,-0.0142 0,-0.0213c0,-0.0071 0,-0.0142 0,-0.0212c0,-0.0071 0,-0.0141 0,-0.0211c0,-0.007 0,-0.014 0,-0.021c0,-0.007 0,-0.014 0,-0.0209c0,-0.007 0,-0.0139 0,-0.0208c0,-0.0069 0,-0.0138 0,-0.0207c0,-0.0069 0,-0.0138 0,-0.0206c0,-0.0069 0,-0.0137 0,-0.0206c0,-0.0068 0,-0.0136 0,-0.0204c0,-0.0068 0,-0.0136 0,-0.0203c0,-0.0068 0,-0.0135 0,-0.0203c0,-0.0067 0,-0.0134 0,-0.0201c0,-0.0067 0,-0.0134 0,-0.02c0,-0.0067 0,-0.0134 0,-0.02c0,-0.0066 0,-0.0132 0,-0.0198c0,-0.0066 0,-0.0132 0,-0.0198c0,-0.0066 0,-0.0131 0,-0.0197c0,-0.0065 0,-0.013 0,-0.0195c0,-0.0066 0,-0.0131 0,-0.0195c0,-0.0065 0,-0.013 0,-0.0194c0,-0.0065 0,-0.0129 0,-0.0193c0,-0.0064 0,-0.0128 0,-0.0192c0,-0.0064 0,-0.0128 0,-0.0191c0,-0.0064 0,-0.0127 0,-0.019c0,-0.0064 0,-0.0127 0,-0.019c0,-0.0063 0,-0.0125 0,-0.0188c0,-0.0063 0,-0.0125 0,-0.0187c0,-0.0063 0,-0.0125 0,-0.0187c0,-0.0062 0,-0.0124 0,-0.0185c0,-0.0062 0,-0.0124 0,-0.0185c0,-0.0061 0,-0.0123 0,-0.0184c0,-0.0061 0,-0.0122 0,-0.0183c0,-0.0061 0,-0.0121 0,-0.0182c0,-0.006 0,-0.0121 0,-0.0181c0,-0.006 0,-0.012 0,-0.018c0,-0.006 0,-0.012 0,-0.0179c0,-0.006 0,-0.0119 0,-0.0179c0,-0.0059 0,-0.0118 0,-0.0177c0,-0.0059 0,-0.0118 0,-0.0177c0,-0.0058 0,-0.0117 0,-0.0175c0,-0.0059 0,-0.0117 0,-0.0175c0,-0.0058 0,-0.0116 0,-0.0174c0,-0.0058 0,-0.0116 0,-0.0173c0,-0.0058 0,-0.0115 0,-0.0172c0,-0.0057 0,-0.0115 0,-0.0172c0,-0.0056 0,-0.0113 0,-0.017c0,-0.0057 0,-0.0113 0,-0.0169c0,-0.0057 0,-0.0113 0,-0.0169c0,-0.0056 0,-0.0112 0,-0.0168c0,-0.0056 0,-0.0111 0,-0.0167c0,-0.0055 0,-0.0111 0,-0.0166c0,-0.0055 0,-0.011 0,-0.0165c0,-0.0055 0,-0.011 0,-0.0165c0,-0.0054 0,-0.0109 0,-0.0163c0,-0.0054 0,-0.0109 0,-0.0163c0,-0.0054 0,-0.0108 0,-0.0162c0,-0.0053 0,-0.0107 0,-0.0161c0,-0.0053 0,-0.0106 0,-0.016c0,-0.0053 0,-0.0106 0,-0.0159c0,-0.0053 0,-0.0106 0,-0.0158c0,-0.0053 0,-0.0106 0,-0.0158c0,-0.0052 0,-0.0105 0,-0.0157c0,-0.0052 0,-0.0104 0,-0.0156c0,-0.0051 0,-0.0103 0,-0.0155c0,-0.0051 0,-0.0103 0,-0.0154c0,-0.0051 0,-0.0102 0,-0.0153c0,-0.0051 0,-0.0102 0,-0.0153c0,-0.0051 0,-0.0101 0,-0.0152c0,-0.005 0,-0.01 0,-0.0151c0,-0.005 0,-0.01 0,-0.015c0,-0.005 0,-0.0099 0,-0.0149c0,-0.005 0,-0.0099 0,-0.0148c0,-0.005 0,-0.0099 0,-0.0148c0,-0.0049 0,-0.0098 0,-0.0147c0,-0.0049 0,-0.0097 0,-0.0146c0,-0.0049 0,-0.0097 0,-0.0145c0,-0.0049 0,-0.0097 0,-0.0145c0,-0.0048 0,-0.0096 0,-0.0143c0,-0.0048 0,-0.0096 0,-0.0143c0,-0.0048 0,-0.0095 0,-0.0142c0,-0.0047 0,-0.0095 0,-0.0141c0,-0.0047 0,-0.0094 0,-0.0141c0,-0.0047 0,-0.0093 0,-0.014c0,-0.0046 0,-0.0092 0,-0.0138c0,-0.0047 0,-0.0093 0,-0.0139c0,-0.0045 0,-0.0091 0,-0.0137c0,-0.0045 0,-0.0091 0,-0.0136c0,-0.0046 0,-0.0091 0,-0.0136c0,-0.0045 0,-0.009 0,-0.0135c0,-0.0045 0,-0.009 0,-0.0134c0,-0.0045 0,-0.0089 0,-0.0134c0,-0.0044 0,-0.0088 0,-0.0132c0,-0.0044 0,-0.0088 0,-0.0132c0,-0.0044 0,-0.0088 0,-0.0131c0,-0.0044 0,-0.0087 0,-0.0131c0,-0.0043 0,-0.0086 0,-0.0129c0,-0.0043 0,-0.0086 0,-0.0129c0,-0.0043 0,-0.0085 0,-0.0128c0,-0.0043 0,-0.0085 0,-0.0127c0,-0.0043 0,-0.0085 0,-0.0127c0,-0.0042 0,-0.0084 0,-0.0126c0,-0.0041 0,-0.0083 0,-0.0125c0,-0.0041 0,-0.0083 0,-0.0124c0,-0.0041 0,-0.0082 0,-0.0124c0,-0.0041 0,-0.0082 0,-0.0122c0,-0.0041 0,-0.0082 0,-0.0122c0,-0.0041 0,-0.0081 0,-0.0122c0,-0.004 0,-0.008 0,-0.012c0,-0.004 0,-0.008 0,-0.012c0,-0.004 0,-0.008 0,-0.0119c0,-0.004 0,-0.0079 0,-0.0119c0,-0.0039 0,-0.0078 0,-0.0117c0,-0.004 0,-0.0079 0,-0.0117c0,-0.0039 0,-0.0078 0,-0.0117c0,-0.0038 0,-0.0077 0,-0.0115c0,-0.0039 0,-0.0077 0,-0.0115c0,-0.0038 0,-0.0076 0,-0.0114c0,-0.0038 0,-0.0076 0,-0.0113c0,-0.0038 0,-0.0076 0,-0.0113c0,-0.0038 0,-0.0075 0,-0.0112c0,-0.0037 0,-0.0074 0,-0.0111c0,-0.0037 0,-0.0074 0,-0.0111c0,-0.0037 0,-0.0073 0,-0.011c0,-0.0036 0,-0.0073 0,-0.0109c0,-0.0036 0,-0.0072 0,-0.0108c0,-0.0036 0,-0.0072 0,-0.0108c0,-0.0036 0,-0.0071 0,-0.0107c0,-0.0036 0,-0.0071 0,-0.0106c0,-0.0036 0,-0.0071 0,-0.0106c0,-0.0035 0,-0.007 0,-0.0105c0,-0.0035 0,-0.007 0,-0.0104c0,-0.0035 0,-0.007 0,-0.0104c0,-0.0034 0,-0.0069 0,-0.0103c0,-0.0034 0,-0.0068 0,-0.0102c0,-0.0034 0,-0.0068 0,-0.0102c0,-0.0034 0,-0.0067 0,-0.0101c0,-0.0033 0,-0.0067 0,-0.01c0,-0.0033 0,-0.0066 0,-0.01c0,-0.0033 0,-0.0066 0,-0.0098c0,-0.0033 0,-0.0066 0,-0.0099c0,-0.0032 0,-0.0065 0,-0.0097c0,-0.0033 0,-0.0065 0,-0.0097c0,-0.0032 0,-0.0065 0,-0.0096c0,-0.0032 0,-0.0064 0,-0.0096c0,-0.0032 0,-0.0064 0,-0.0095c0,-0.0032 0,-0.0063 0,-0.0094c0,-0.0032 0,-0.0063 0,-0.0094c0,-0.0031 0,-0.0062 0,-0.0093c0,-0.0031 0,-0.0062 0,-0.0092c0,-0.0031 0,-0.0062 0,-0.0092c0,-0.0031 0,-0.0061 0,-0.0091c0,-0.0031 0,-0.0061 0,-0.0091c0,-0.003 0,-0.006 0,-0.009c0,-0.0029 0,-0.0059 0,-0.0089c0,-0.0029 0,-0.0059 0,-0.0088c0,-0.003 0,-0.0059 0,-0.0088c0,-0.0029 0,-0.0059 0,-0.0088c0,-0.0029 0,-0.0057 0,-0.0086c0,-0.0029 0,-0.0058 0,-0.0086c0,-0.0029 0,-0.0057 0,-0.0086c0,-0.0028 0,-0.0056 0,-0.0085c0,-0.0028 0,-0.0056 0,-0.0084c0,-0.0028 0,-0.0056 0,-0.0083c0,-0.0028 0,-0.0056 0,-0.0083c0,-0.0028 0,-0.0055 0,-0.0083c0,-0.0027 0,-0.0054 0,-0.0082c0,-0.0027 0,-0.0054 0,-0.0081c0,-0.0027 0,-0.0053 0,-0.008c0,-0.0027 0,-0.0054 0,-0.008c0,-0.0027 0,-0.0053 0,-0.008c0,-0.0026 0,-0.0052 0,-0.0078c0,-0.0027 0,-0.0053 0,-0.0079c0,-0.0026 0,-0.0051 0,-0.0077c0,-0.0026 0,-0.0052 0,-0.0077c0,-0.0026 0,-0.0051 0,-0.0077c0,-0.0025 0,-0.005 0,-0.0075c0,-0.0026 0,-0.0051 0,-0.0076c0,-0.0025 0,-0.005 0,-0.0074c0,-0.0025 0,-0.005 0,-0.0074c0,-0.0025 0,-0.005 0,-0.0074c0,-0.0024 0,-0.0049 0,-0.0073c0,-0.0024 0,-0.0048 0,-0.0072c0,-0.0024 0,-0.0048 0,-0.0072c0,-0.0024 0,-0.0048 0,-0.0071c0,-0.0024 0,-0.0048 0,-0.0071c0,-0.0024 0,-0.0047 0,-0.007c0,-0.0024 0,-0.0047 0,-0.007c0,-0.0023 0,-0.0046 0,-0.0069c0,-0.0023 0,-0.0046 0,-0.0068c0,-0.0023 0,-0.0046 0,-0.0068c0,-0.0023 0,-0.0045 0,-0.0068c0,-0.0022 0,-0.0044 0,-0.0066c0,-0.0023 0,-0.0045 0,-0.0067c0,-0.0022 0,-0.0044 0,-0.0065c0,-0.0022 0,-0.0044 0,-0.0066c0,-0.0021 0,-0.0043 0,-0.0064c0,-0.0022 0,-0.0043 0,-0.0064c0,-0.0022 0,-0.0043 0,-0.0064c0,-0.0021 0,-0.0042 0,-0.0063c0,-0.0021 0,-0.0042 0,-0.0062c0,-0.0021 0,-0.0042 0,-0.0062c0,-0.0021 0,-0.0041 0,-0.0062c0,-0.002 0,-0.0041 0,-0.0061c0,-0.002 0,-0.004 0,-0.006c0,-0.002 0,-0.004 0,-0.006c0,-0.002 0,-0.004 0,-0.0059c0,-0.002 0,-0.004 0,-0.0059c0,-0.002 0,-0.0039 0,-0.0059c0,-0.0019 0,-0.0038 0,-0.0057c0,-0.002 0,-0.0039 0,-0.0058c0,-0.0019 0,-0.0038 0,-0.0057c0,-0.0019 0,-0.0037 0,-0.0056c0,-0.0019 0,-0.0037 0,-0.0056c0,-0.0018 0,-0.0037 0,-0.0055c0,-0.0019 0,-0.0037 0,-0.0055c0,-0.0018 0,-0.0036 0,-0.0054c0,-0.0018 0,-0.0036 0,-0.0054c0,-0.0018 0,-0.0036 0,-0.0054c0,-0.0017 0,-0.0035 0,-0.0052c0,-0.0018 0,-0.0035 0,-0.0053c0,-0.0017 0,-0.0034 0,-0.0052c0,-0.0017 0,-0.0034 0,-0.0051c0,-0.0017 0,-0.0034 0,-0.0051c0,-0.0017 0,-0.0034 0,-0.005c0,-0.0017 0,-0.0034 0,-0.005c0,-0.0017 0,-0.0034 0,-0.005c0,-0.0016 0,-0.0033 0,-0.0049c0,-0.0016 0,-0.0033 0,-0.0049c0,-0.0016 0,-0.0032 0,-0.0048c0,-0.0016 0,-0.0032 0,-0.0047c0,-0.0016 0,-0.0032 0,-0.0048c0,-0.0015 0,-0.0031 0,-0.0046c0,-0.0016 0,-0.0031 0,-0.0047c0,-0.0015 0,-0.003 0,-0.0045c0,-0.0016 0,-0.0031 0,-0.0046c0,-0.0015 0,-0.003 0,-0.0045c0,-0.0015 0,-0.0029 0,-0.0044c0,-0.0015 0,-0.003 0,-0.0044c0,-0.0015 0,-0.0029 0,-0.0044c0,-0.0014 0,-0.0029 0,-0.0043c0,-0.0014 0,-0.0029 0,-0.0043c0,-0.0014 0,-0.0028 0,-0.0042c0,-0.0014 0,-0.0028 0,-0.0042c0,-0.0014 0,-0.0028 0,-0.0041c0,-0.0014 0,-0.0028 0,-0.0041c0,-0.0014 0,-0.0027 0,-0.0041c0,-0.0013 0,-0.0027 0,-0.004c0,-0.0013 0,-0.0027 0,-0.004c0,-0.0013 0,-0.0026 0,-0.0039c0,-0.0013 0,-0.0026 0,-0.0039c0,-0.0013 0,-0.0026 0,-0.0038c0,-0.0013 0,-0.0026 0,-0.0038c0,-0.0013 0,-0.0025 0,-0.0038c0,-0.0012 0,-0.0025 0,-0.0037c0,-0.0013 0,-0.0025 0,-0.0037c0,-0.0012 0,-0.0024 0,-0.0036c0,-0.0012 0,-0.0024 0,-0.0036c0,-0.0012 0,-0.0024 0,-0.0036c0,-0.0012 0,-0.0024 0,-0.0035c0,-0.0012 0,-0.0024 0,-0.0035c0,-0.0012 0,-0.0023 0,-0.0034c0,-0.0012 0,-0.0023 0,-0.0035c0,-0.0011 0,-0.0022 0,-0.0033c0,-0.0011 0,-0.0022 0,-0.0033c0,-0.0011 0,-0.0022 0,-0.0033c0,-0.0011 0,-0.0022 0,-0.0033c0,-0.0011 0,-0.0021 0,-0.0032c0,-0.0011 0,-0.0021 0,-0.0032c0,-0.001 0,-0.0021 0,-0.0031c0,-0.001 0,-0.0021 0,-0.0031c0,-0.001 0,-0.002 0,-0.0031c0,-0.001 0,-0.002 0,-0.003c0,-0.001 0,-0.002 0,-0.003c0,-0.001 0,-0.0019 0,-0.0029c0,-0.001 0,-0.002 0,-0.0029c0,-0.001 0,-0.002 0,-0.0029c0,-0.001 0,-0.0019 0,-0.0029c0,-0.0009 0,-0.0018 0,-0.0028c0,-0.0009 0,-0.0018 0,-0.0027c0,-0.001 0,-0.0019 0,-0.0028c0,-0.0009 0,-0.0018 0,-0.0027c0,-0.0009 0,-0.0018 0,-0.0026c0,-0.0009 0,-0.0018 0,-0.0027c0,-0.0008 0,-0.0017 0,-0.0026c0,-0.0008 0,-0.0017 0,-0.0025c0,-0.0009 0,-0.0017 0,-0.0026c0,-0.0008 0,-0.0016 0,-0.0025c0,-0.0008 0,-0.0016 0,-0.0024c0,-0.0008 0,-0.0017 0,-0.0025c0,-0.0008 0,-0.0016 0,-0.0024c0,-0.0008 0,-0.0015 0,-0.0023c0,-0.0008 0,-0.0016 0,-0.0024c0,-0.0007 0,-0.0015 0,-0.0023c0,-0.0007 0,-0.0015 0,-0.0022c0,-0.0008 0,-0.0015 0,-0.0023c0,-0.0007 0,-0.0014 0,-0.0022c0,-0.0007 0,-0.0014 0,-0.0022c0,-0.0007 0,-0.0014 0,-0.0021c0,-0.0007 0,-0.0014 0,-0.0021c0,-0.0007 0,-0.0014 0,-0.0021c0,-0.0007 0,-0.0014 0,-0.002c0,-0.0007 0,-0.0014 0,-0.0021c0,-0.0006 0,-0.0013 0,-0.002c0,-0.0006 0,-0.0013 0,-0.0019c0,-0.0007 0,-0.0013 0,-0.002c0,-0.0006 0,-0.0012 0,-0.0019c0,-0.0006 0,-0.0012 0,-0.0018c0,-0.0006 0,-0.0013 0,-0.0019c0,-0.0006 0,-0.0012 0,-0.0018c0,-0.0006 0,-0.0012 0,-0.0018c0,-0.0006 0,-0.0012 0,-0.0017c0,-0.0006 0,-0.0012 0,-0.0018c0,-0.0005 0,-0.0011 0,-0.0017c0,-0.0005 0,-0.0011 0,-0.0017c0,-0.0005 0,-0.0011 0,-0.0016c0,-0.0005 0,-0.0011 0,-0.0016c0,-0.0006 0,-0.0011 0,-0.0016c0,-0.0006 0,-0.0011 0,-0.0016c0,-0.0005 0,-0.001 0,-0.0015c0,-0.0005 0,-0.0011 0,-0.0016c0,-0.0005 0,-0.001 0,-0.0014c0,-0.0005 0,-0.001 0,-0.0015c0,-0.0005 0,-0.001 0,-0.0014c0,-0.0005 0,-0.001 0,-0.0015c0,-0.0004 0,-0.0009 0,-0.0014c0,-0.0004 0,-0.0009 0,-0.0013c0,-0.0005 0,-0.0009 0,-0.0014c0,-0.0004 0,-0.0008 0,-0.0013c0,-0.0004 0,-0.0008 0,-0.0013c0,-0.0004 0,-0.0008 0,-0.0012c0,-0.0004 0,-0.0009 0,-0.0013c0,-0.0004 0,-0.0008 0,-0.0012c0,-0.0004 0,-0.0008 0,-0.0012c0,-0.0004 0,-0.0008 0,-0.0012c0,-0.0004 0,-0.0007 0,-0.0011c0,-0.0004 0,-0.0008 0,-0.0011c0,-0.0004 0,-0.0008 0,-0.0012c0,-0.0003 0,-0.0007 0,-0.001c0,-0.0004 0,-0.0007 0,-0.0011c0,-0.0004 0,-0.0007 0,-0.001c0,-0.0004 0,-0.0007 0,-0.0011c0,-0.0003 0,-0.0006 0,-0.001c0,-0.0003 0,-0.0006 0,-0.0009c0,-0.0004 0,-0.0007 0,-0.001c0,-0.0003 0,-0.0006 0,-0.0009c0,-0.0003 0,-0.0006 0,-0.0009c0,-0.0003 0,-0.0006 0,-0.0009c0,-0.0003 0,-0.0006 0,-0.0009c0,-0.0003 0,-0.0006 0,-0.0009c0,-0.0003 0,-0.0005 0,-0.0008c0,-0.0003 0,-0.0006 0,-0.0008c0,-0.0003 0,-0.0006 0,-0.0008c0,-0.0003 0,-0.0005 0,-0.0008c0,-0.0003 0,-0.0005 0,-0.0008c0,-0.0002 0,-0.0005 0,-0.0007c0,-0.0002 0,-0.0005 0,-0.0007c0,-0.0003 0,-0.0005 0,-0.0007c0,-0.0003 0,-0.0005 0,-0.0007c0,-0.0002 0,-0.0005 0,-0.0007c0,-0.0002 0,-0.0004 0,-0.0006c0,-0.0003 0,-0.0005 0,-0.0007c0,-0.0002 0,-0.0004 0,-0.0006c0,-0.0002 0,-0.0004 0,-0.0006c0,-0.0002 0,-0.0004 0,-0.0006c0,-0.0002 0,-0.0004 0,-0.0006c0,-0.0002 0,-0.0003 0,-0.0005c0,-0.0002 0,-0.0004 0,-0.0006c0,-0.0001 0,-0.0003 0,-0.0005c0,-0.0002 0,-0.0003 0,-0.0005c0,-0.0002 0,-0.0003 0,-0.0005c0,-0.0002 0,-0.0003 0,-0.0005c0,-0.0001 0,-0.0003 0,-0.0004c0,-0.0002 0,-0.0003 0,-0.0005c0,-0.0001 0,-0.0003 0,-0.0004c0,-0.0002 0,-0.0003 0,-0.0004c0,-0.0002 0,-0.0003 0,-0.0005c0,-0.0001 0,-0.0002 0,-0.0003c0,-0.0002 0,-0.0003 0,-0.0004c0,-0.0002 0,-0.0003 0,-0.0004c0,-0.0001 0,-0.0002 0,-0.0004c0,-0.0001 0,-0.0002 0,-0.0003c0,-0.0001 0,-0.0002 0,-0.0003c0,-0.0001 0,-0.0002 0,-0.0004c0,-0.0001 0,-0.0002 0,-0.0003c0,-0.0001 0,-0.0002 0,-0.0003c0,-0.0001 0,-0.0002 0,-0.0002c0,-0.0001 0,-0.0002 0,-0.0003c0,-0.0001 0,-0.0002 0,-0.0003c0,-0.0001 0,-0.0001 0,-0.0002c0,-0.0001 0,-0.0002 0,-0.0003c0,-0.0001 0,-0.0001 0,-0.0002c0,-0.0001 0,-0.0002 0,-0.0002c0,-0.0001 0,-0.0002 0,-0.0002c0,-0.0001 0,-0.0002 0,-0.0002c0,-0.0001 0,-0.0002 0,-0.0002c0,-0.0001 0,-0.0002 0,-0.0002c0,-0.0001 0,-0.0001 0,-0.0002c0,0 0,-0.0001 0,-0.0002v-0.0001c0,-0.0001 0,-0.0001 0,-0.0002v-0.0001v-0.0001c0,-0.0001 0,-0.0001 0,-0.0002c0,0 0,0 0,-0.0001v-0.0001v-0.0001v-0.0001v-0.0001c0,0 0,0 0,-0.0001v0c0,-0.0001 0,-0.0001 0,-0.0001v-0.0001v0c0,-0.0001 0,-0.0001 0,-0.0001c0,0 0,0 0,-0.0001v0v0c0,-0.0001 0,-0.0001 0,-0.0001v0v0c0,-0.0001 0,-0.0001 0,-0.0001v0v0v0c0,0 0,0 0,-0.0001v0v0v0v0v0v0v0v0v0v0zM13.25,12v-5h-1.5v5z"></path></g></g></svg>